<svg width="140" height="37" viewBox="0 0 140 37" fill="none" xmlns="http://www.w3.org/2000/svg">
<path d="M139.165 21.212V23.7292H137.654C136.558 23.7292 135.775 23.5055 135.305 23.0579C134.835 22.6104 134.589 21.9504 134.567 21.0777C133.246 22.9796 131.333 23.9306 128.827 23.9306C126.925 23.9306 125.393 23.4831 124.229 22.5881C123.088 21.693 122.517 20.4736 122.517 18.9297C122.517 17.2068 123.099 15.8866 124.263 14.9692C125.449 14.0518 127.16 13.5931 129.398 13.5931H134.432V12.4184C134.432 11.2996 134.052 10.427 133.291 9.80047C132.553 9.17396 131.512 8.8607 130.17 8.8607C128.984 8.8607 127.999 9.12921 127.216 9.66622C126.456 10.1809 125.986 10.8745 125.807 11.7471H123.054C123.256 10.069 123.994 8.76001 125.27 7.82024C126.567 6.88047 128.246 6.41058 130.304 6.41058C132.497 6.41058 134.186 6.9476 135.372 8.02162C136.58 9.07327 137.185 10.5948 137.185 12.5862V19.9701C137.185 20.798 137.565 21.212 138.326 21.212H139.165ZM134.432 15.909H129.129C126.579 15.909 125.303 16.8599 125.303 18.7619C125.303 19.6121 125.639 20.2946 126.31 20.8092C126.981 21.3238 127.888 21.5812 129.029 21.5812C130.707 21.5812 132.027 21.1448 132.989 20.2722C133.951 19.3772 134.432 18.2025 134.432 16.7481V15.909Z" fill="white"/>
<path d="M106.308 0.23494H109.06V15.8083L117.753 6.61195H121.042L114.464 13.6267L121.512 23.7292H118.189L112.484 15.6069L109.06 19.1982V23.7292H106.308V0.23494Z" fill="white"/>
<path d="M101.162 0C101.676 0 102.101 0.167816 102.437 0.503448C102.773 0.839079 102.94 1.26421 102.94 1.77885C102.94 2.29349 102.773 2.71862 102.437 3.05425C102.101 3.38988 101.676 3.5577 101.162 3.5577C100.647 3.5577 100.222 3.38988 99.8861 3.05425C99.5505 2.71862 99.3827 2.29349 99.3827 1.77885C99.3827 1.26421 99.5505 0.839079 99.8861 0.503448C100.222 0.167816 100.647 0 101.162 0ZM99.7855 6.61195H102.538V23.7292H99.7855V6.61195Z" fill="white"/>
<path d="M97.2687 6.61195V9.29701H95.8926C94.2592 9.29701 93.0845 9.84521 92.3685 10.9416C91.6749 12.038 91.328 13.3917 91.328 15.0028V23.7292H88.5759V6.61195H90.9588L91.328 9.19632C91.8203 8.41318 92.458 7.78667 93.2411 7.31678C94.0243 6.8469 95.1095 6.61195 96.4968 6.61195H97.2687Z" fill="white"/>
<path d="M77.2079 6.41057C78.7966 6.41057 80.2062 6.75739 81.4369 7.45103C82.6899 8.14467 83.6632 9.15157 84.3569 10.4717C85.0729 11.7919 85.4309 13.3582 85.4309 15.1706C85.4309 16.8935 85.0729 18.415 84.3569 19.7352C83.6632 21.0553 82.6899 22.0846 81.4369 22.823C80.1838 23.5614 78.7742 23.9306 77.2079 23.9306C75.8206 23.9306 74.6347 23.6844 73.6502 23.1922C72.6657 22.6776 71.8937 21.9839 71.3343 21.1113L70.9651 23.7292H68.5821V0.23494H71.3343V9.36414C72.7664 7.3951 74.7242 6.41057 77.2079 6.41057ZM76.9394 21.4805C78.6399 21.4805 80.0048 20.8987 81.0341 19.7352C82.0858 18.5493 82.6116 17.0277 82.6116 15.1706C82.6116 13.3134 82.0858 11.8031 81.0341 10.6395C80.0048 9.45364 78.6399 8.86069 76.9394 8.86069C75.843 8.86069 74.8585 9.1292 73.9858 9.66621C73.1356 10.1808 72.4755 10.9192 72.0056 11.8814C71.5357 12.8212 71.3008 13.8952 71.3008 15.1034C71.3008 16.3341 71.5357 17.4417 72.0056 18.4262C72.4755 19.3884 73.1356 20.1379 73.9858 20.6749C74.8585 21.212 75.843 21.4805 76.9394 21.4805Z" fill="white"/>
<path d="M66.4664 21.212V23.7292H64.956C63.8596 23.7292 63.0765 23.5055 62.6066 23.0579C62.1367 22.6104 61.8906 21.9504 61.8682 21.0777C60.548 22.9796 58.6349 23.9306 56.1289 23.9306C54.227 23.9306 52.6942 23.4831 51.5307 22.5881C50.3896 21.693 49.819 20.4736 49.819 18.9297C49.819 17.2068 50.4008 15.8866 51.5643 14.9692C52.7502 14.0518 54.4619 13.5931 56.6995 13.5931H61.7339V12.4184C61.7339 11.2996 61.3536 10.427 60.5928 9.80047C59.8544 9.17396 58.8139 8.8607 57.4714 8.8607C56.2855 8.8607 55.301 9.12921 54.5178 9.66622C53.7571 10.1809 53.2872 10.8745 53.1082 11.7471H50.356C50.5574 10.069 51.2958 8.76001 52.5712 7.82024C53.869 6.88047 55.5471 6.41058 57.6057 6.41058C59.7985 6.41058 61.4878 6.9476 62.6737 8.02162C63.882 9.07327 64.4861 10.5948 64.4861 12.5862V19.9701C64.4861 20.798 64.8665 21.212 65.6273 21.212H66.4664ZM61.7339 15.909H56.4309C53.8801 15.909 52.6047 16.8599 52.6047 18.7619C52.6047 19.6121 52.9404 20.2946 53.6116 20.8092C54.2829 21.3238 55.1891 21.5812 56.3303 21.5812C58.0084 21.5812 59.3286 21.1448 60.2907 20.2722C61.2529 19.3772 61.7339 18.2025 61.7339 16.7481V15.909Z" fill="white"/>
<path d="M41.5354 6.61195V4.69885C41.5354 3.17732 41.8822 2.05854 42.5759 1.34253C43.2919 0.604135 44.4331 0.23494 45.9993 0.23494H49.1543V2.75218H46.1672C45.4959 2.75218 45.0148 2.89762 44.7239 3.1885C44.4331 3.47938 44.2876 3.96046 44.2876 4.63172V6.61195H49.1207V9.12919H44.2876V23.7292H41.5354V9.12919H38.4476V6.61195H41.5354Z" fill="white"/>
<path d="M31.4985 9.46483C31.4985 8.63694 31.767 7.96568 32.304 7.45104C32.841 6.91403 33.5234 6.64552 34.3513 6.64552C35.1568 6.64552 35.8281 6.91403 36.3651 7.45104C36.9245 7.98805 37.2042 8.65931 37.2042 9.46483C37.2042 10.2703 36.9245 10.9416 36.3651 11.4786C35.8281 11.9933 35.1568 12.2506 34.3513 12.2506C33.5234 12.2506 32.841 11.9933 32.304 11.4786C31.767 10.9416 31.4985 10.2703 31.4985 9.46483ZM31.4985 21.1448C31.4985 20.3169 31.767 19.6457 32.304 19.131C32.841 18.594 33.5234 18.3255 34.3513 18.3255C35.1568 18.3255 35.8281 18.594 36.3651 19.131C36.9245 19.6681 37.2042 20.3393 37.2042 21.1448C37.2042 21.9504 36.9245 22.6216 36.3651 23.1586C35.8281 23.6733 35.1568 23.9306 34.3513 23.9306C33.5234 23.9306 32.841 23.6733 32.304 23.1586C31.767 22.6216 31.4985 21.9504 31.4985 21.1448Z" fill="white"/>
<path d="M11.6608 15.137C11.6608 13.347 12.0188 11.7919 12.7348 10.4717C13.4732 9.1292 14.4913 8.09992 15.789 7.38391C17.1092 6.64552 18.6307 6.27632 20.3536 6.27632C22.0989 6.27632 23.6316 6.62314 24.9518 7.31678C26.2943 7.98805 27.3348 8.95019 28.0732 10.2032C28.8339 11.4339 29.2255 12.8883 29.2479 14.5664C29.2479 15.1706 29.2031 15.7076 29.1136 16.1775H16.5945V16.3117C16.7064 17.5648 17.1092 18.5493 17.8028 19.2653C18.4965 19.9813 19.4474 20.3393 20.6557 20.3393C21.6178 20.3393 22.4122 20.1379 23.0387 19.7352C23.6876 19.31 24.1127 18.6947 24.3141 17.8892H28.9794C28.8004 19.0303 28.364 20.0596 27.6704 20.977C26.9768 21.8944 26.0594 22.6216 24.9182 23.1586C23.7771 23.6733 22.4681 23.9306 20.9913 23.9306C19.067 23.9306 17.4001 23.5726 15.9904 22.8566C14.6031 22.1405 13.5291 21.1225 12.7683 19.8023C12.0299 18.4598 11.6608 16.9047 11.6608 15.137ZM24.5155 13.0897C24.3588 12.038 23.9225 11.2325 23.2065 10.6731C22.5129 10.0913 21.629 9.80046 20.555 9.80046C19.5257 9.80046 18.6531 10.1025 17.9371 10.7067C17.2434 11.2884 16.8295 12.0828 16.6952 13.0897H24.5155Z" fill="white"/>
<path d="M10.7755 6.47771V10.7738H8.89598C7.55345 10.7738 6.56893 11.1766 5.94242 11.9821C5.31591 12.7876 5.00265 13.884 5.00265 15.2713V23.7292H0.270233V6.47771H4.56633L5.00265 9.06207C5.51728 8.21181 6.15499 7.5741 6.91575 7.14897C7.67652 6.70146 8.6946 6.47771 9.97001 6.47771H10.7755Z" fill="white"/>
<path d="M92.1661 34.6125C92.1661 34.489 92.2056 34.3902 92.2846 34.3161C92.3637 34.2371 92.4649 34.1976 92.5884 34.1976C92.7119 34.1976 92.8132 34.2371 92.8923 34.3161C92.9713 34.3902 93.0108 34.489 93.0108 34.6125C93.0108 34.736 92.9713 34.8373 92.8923 34.9164C92.8132 34.9905 92.7119 35.0275 92.5884 35.0275C92.4649 35.0275 92.3637 34.9905 92.2846 34.9164C92.2056 34.8373 92.1661 34.736 92.1661 34.6125Z" fill="white"/>
<path d="M89.9318 31.1595C90.3912 31.1595 90.7617 31.2978 91.0433 31.5744C91.3249 31.8511 91.4656 32.2858 91.4656 32.8786V34.983H90.858V32.9156C90.858 32.5254 90.7691 32.229 90.5913 32.0264C90.4134 31.819 90.159 31.7152 89.828 31.7152C89.4773 31.7152 89.1982 31.8387 88.9907 32.0857C88.7881 32.3327 88.6869 32.6686 88.6869 33.0935V34.983H88.0792V29.796H88.6869V31.8264C88.8104 31.6288 88.9734 31.4682 89.1759 31.3447C89.3834 31.2212 89.6354 31.1595 89.9318 31.1595Z" fill="white"/>
<path d="M87.3767 33.6789C87.2977 34.0988 87.1125 34.4298 86.821 34.6718C86.5295 34.9089 86.159 35.0275 85.7095 35.0275C85.3439 35.0275 85.0228 34.946 84.7462 34.783C84.4695 34.62 84.2546 34.3927 84.1015 34.1012C83.9484 33.8048 83.8718 33.4665 83.8718 33.0861C83.8718 32.7057 83.9484 32.3698 84.1015 32.0783C84.2596 31.7868 84.4794 31.5621 84.761 31.404C85.0426 31.241 85.3661 31.1595 85.7317 31.1595C86.1763 31.1595 86.5419 31.278 86.8284 31.5151C87.1199 31.7523 87.3026 32.0783 87.3767 32.4933H86.7617C86.7024 32.2512 86.5789 32.0585 86.3912 31.9153C86.2035 31.772 85.9762 31.7004 85.7095 31.7004C85.3489 31.7004 85.0549 31.8288 84.8277 32.0857C84.6054 32.3426 84.4942 32.676 84.4942 33.0861C84.4942 33.501 84.6054 33.8394 84.8277 34.1012C85.0549 34.3581 85.3489 34.4866 85.7095 34.4866C85.9861 34.4866 86.2183 34.4149 86.406 34.2717C86.5938 34.1284 86.7148 33.9308 86.7691 33.6789H87.3767Z" fill="white"/>
<path d="M81.704 31.1595C82.1634 31.1595 82.5314 31.2978 82.8081 31.5744C83.0897 31.8511 83.2305 32.2858 83.2305 32.8786V34.983H82.6228V32.9156C82.6228 32.5254 82.5339 32.229 82.3561 32.0264C82.1832 31.819 81.9312 31.7152 81.6002 31.7152C81.2446 31.7152 80.9654 31.8387 80.7629 32.0857C80.5604 32.3327 80.4591 32.6686 80.4591 33.0935V34.983H79.8515V31.2039H80.3776L80.4591 31.7152C80.7456 31.3447 81.1606 31.1595 81.704 31.1595Z" fill="white"/>
<path d="M79.0232 31.2039V34.9831H78.4971L78.4156 34.4792C78.129 34.8447 77.7264 35.0275 77.2077 35.0275C76.7582 35.0275 76.3975 34.8892 76.1258 34.6125C75.8541 34.3359 75.7183 33.9012 75.7183 33.3084V31.2039H76.3259V33.2713C76.3259 33.6616 76.4099 33.9605 76.5779 34.1679C76.7508 34.3705 76.9953 34.4718 77.3114 34.4718C77.6573 34.4718 77.9265 34.3483 78.1191 34.1013C78.3167 33.8543 78.4156 33.5183 78.4156 33.0935V31.2039H79.0232Z" fill="white"/>
<path d="M75.303 34.4273V34.983H74.9696C74.7275 34.983 74.5546 34.9336 74.4509 34.8348C74.3471 34.736 74.2928 34.5903 74.2878 34.3977C73.9964 34.8176 73.574 35.0275 73.0207 35.0275C72.6008 35.0275 72.2624 34.9287 72.0055 34.7311C71.7536 34.5335 71.6276 34.2643 71.6276 33.9234C71.6276 33.543 71.7561 33.2516 72.013 33.049C72.2748 32.8465 72.6527 32.7452 73.1467 32.7452H74.2582V32.4859C74.2582 32.2389 74.1742 32.0462 74.0063 31.9079C73.8432 31.7695 73.6135 31.7004 73.3171 31.7004C73.0553 31.7004 72.8379 31.7597 72.665 31.8782C72.4971 31.9919 72.3933 32.145 72.3538 32.3377H71.7462C71.7907 31.9672 71.9537 31.6782 72.2353 31.4707C72.5218 31.2632 72.8923 31.1595 73.3468 31.1595C73.8309 31.1595 74.2039 31.278 74.4657 31.5151C74.7325 31.7473 74.8658 32.0832 74.8658 32.5229V34.1531C74.8658 34.3359 74.9498 34.4273 75.1178 34.4273H75.303ZM74.2582 33.2565H73.0874C72.5243 33.2565 72.2427 33.4665 72.2427 33.8864C72.2427 34.0741 72.3168 34.2248 72.465 34.3384C72.6132 34.452 72.8132 34.5088 73.0652 34.5088C73.4357 34.5088 73.7272 34.4125 73.9396 34.2198C74.152 34.0222 74.2582 33.7629 74.2582 33.4418V33.2565Z" fill="white"/>
<path d="M70.3284 29.796H70.936V34.983H70.3284V29.796Z" fill="white"/>
<path d="M66.0485 33.0935C66.0485 32.7082 66.1226 32.3698 66.2708 32.0783C66.424 31.7868 66.6364 31.5621 66.9081 31.404C67.1798 31.241 67.491 31.1595 67.8418 31.1595C68.1876 31.1595 68.4939 31.2311 68.7606 31.3743C69.0274 31.5176 69.2373 31.7251 69.3905 31.9968C69.5436 32.2685 69.6251 32.5871 69.635 32.9527C69.635 33.007 69.6301 33.0935 69.6202 33.212H66.6858V33.2639C66.6957 33.6344 66.8093 33.9308 67.0267 34.1531C67.244 34.3754 67.5281 34.4866 67.8788 34.4866C68.1505 34.4866 68.3802 34.4199 68.568 34.2865C68.7606 34.1482 68.8891 33.958 68.9533 33.7159H69.5683C69.4942 34.1012 69.309 34.4174 69.0126 34.6644C68.7162 34.9065 68.3531 35.0275 67.9233 35.0275C67.5478 35.0275 67.2193 34.9485 66.9378 34.7904C66.6562 34.6274 66.4363 34.4001 66.2783 34.1087C66.1251 33.8123 66.0485 33.4739 66.0485 33.0935ZM69.0052 32.7082C68.9755 32.3871 68.8545 32.1376 68.6421 31.9597C68.4346 31.7819 68.1703 31.693 67.8492 31.693C67.5627 31.693 67.3107 31.7868 67.0934 31.9746C66.876 32.1623 66.7525 32.4068 66.7229 32.7082H69.0052Z" fill="white"/>
<path d="M63.9222 29.796C64.263 29.796 64.5644 29.8627 64.8262 29.9961C65.088 30.1245 65.2905 30.3098 65.4338 30.5518C65.5771 30.789 65.6487 31.0681 65.6487 31.3892C65.6487 31.7498 65.5474 32.0635 65.3449 32.3302C65.1473 32.5921 64.8805 32.7699 64.5446 32.8638L65.708 34.983H64.9818L63.9073 32.9897H62.5809V34.983H61.9363V29.796H63.9222ZM62.5809 32.3969H63.8703C64.2111 32.3969 64.4828 32.3055 64.6854 32.1228C64.8879 31.94 64.9892 31.6955 64.9892 31.3892C64.9892 31.0878 64.8879 30.8458 64.6854 30.663C64.4828 30.4802 64.2136 30.3888 63.8777 30.3888H62.5809V32.3969Z" fill="white"/>
<path d="M58.307 34.6125C58.307 34.489 58.3465 34.3902 58.4256 34.3161C58.5046 34.2371 58.6059 34.1976 58.7294 34.1976C58.8529 34.1976 58.9541 34.2371 59.0332 34.3161C59.1122 34.3902 59.1517 34.489 59.1517 34.6125C59.1517 34.736 59.1122 34.8373 59.0332 34.9164C58.9541 34.9905 58.8529 35.0275 58.7294 35.0275C58.6059 35.0275 58.5046 34.9905 58.4256 34.9164C58.3465 34.8373 58.307 34.736 58.307 34.6125Z" fill="white"/>
<path d="M57.5534 29.796V34.983H57.0273L56.9457 34.3754C56.6296 34.8101 56.1973 35.0275 55.649 35.0275C55.2982 35.0275 54.9846 34.9509 54.7079 34.7978C54.4362 34.6447 54.2213 34.4224 54.0632 34.1309C53.9101 33.8394 53.8335 33.4936 53.8335 33.0935C53.8335 32.7131 53.9101 32.3772 54.0632 32.0857C54.2213 31.7943 54.4387 31.567 54.7153 31.404C54.992 31.241 55.3032 31.1595 55.649 31.1595C55.9553 31.1595 56.2171 31.2163 56.4345 31.3299C56.6518 31.4386 56.8222 31.5892 56.9457 31.7819V29.796H57.5534ZM55.7083 34.4866C55.9503 34.4866 56.1652 34.4298 56.3529 34.3161C56.5456 34.1976 56.6938 34.0346 56.7975 33.8271C56.9013 33.6147 56.9532 33.3751 56.9532 33.1083C56.9532 32.8366 56.9013 32.5945 56.7975 32.3821C56.6938 32.1648 56.5456 31.9968 56.3529 31.8782C56.1652 31.7597 55.9503 31.7004 55.7083 31.7004C55.3328 31.7004 55.029 31.8313 54.7968 32.0931C54.5696 32.35 54.456 32.6835 54.456 33.0935C54.456 33.5035 54.5696 33.8394 54.7968 34.1013C55.029 34.3581 55.3328 34.4866 55.7083 34.4866Z" fill="white"/>
<path d="M52.5269 29.796H53.1345V34.983H52.5269V29.796Z" fill="white"/>
<path d="M51.3906 29.7441C51.5043 29.7441 51.5981 29.7812 51.6722 29.8553C51.7463 29.9294 51.7834 30.0232 51.7834 30.1369C51.7834 30.2505 51.7463 30.3443 51.6722 30.4184C51.5981 30.4925 51.5043 30.5296 51.3906 30.5296C51.277 30.5296 51.1832 30.4925 51.1091 30.4184C51.035 30.3443 50.9979 30.2505 50.9979 30.1369C50.9979 30.0232 51.035 29.9294 51.1091 29.8553C51.1832 29.7812 51.277 29.7441 51.3906 29.7441ZM51.0868 31.2039H51.6944V34.983H51.0868V31.2039Z" fill="white"/>
<path d="M50.2585 31.2039V34.9831H49.7324L49.6509 34.4792C49.3644 34.8447 48.9618 35.0275 48.4431 35.0275C47.9935 35.0275 47.6329 34.8892 47.3612 34.6125C47.0895 34.3359 46.9536 33.9012 46.9536 33.3084V31.2039H47.5613V33.2713C47.5613 33.6616 47.6452 33.9605 47.8132 34.1679C47.9861 34.3705 48.2306 34.4718 48.5468 34.4718C48.8926 34.4718 49.1618 34.3483 49.3545 34.1013C49.5521 33.8543 49.6509 33.5183 49.6509 33.0935V31.2039H50.2585Z" fill="white"/>
<path d="M44.4957 31.1595C44.8464 31.1595 45.1577 31.236 45.4294 31.3892C45.706 31.5423 45.9209 31.7646 46.074 32.0561C46.2321 32.3475 46.3112 32.6933 46.3112 33.0935C46.3112 33.4739 46.2321 33.8098 46.074 34.1013C45.9209 34.3927 45.706 34.62 45.4294 34.783C45.1527 34.946 44.8415 35.0275 44.4957 35.0275C44.1894 35.0275 43.9276 34.9732 43.7102 34.8645C43.4929 34.7509 43.3224 34.5977 43.1989 34.4051L43.1174 34.983H42.5913V29.796H43.1989V31.8115C43.5151 31.3768 43.9473 31.1595 44.4957 31.1595ZM44.4364 34.4866C44.8119 34.4866 45.1132 34.3581 45.3404 34.1013C45.5726 33.8394 45.6887 33.5035 45.6887 33.0935C45.6887 32.6835 45.5726 32.35 45.3404 32.0931C45.1132 31.8313 44.8119 31.7004 44.4364 31.7004C44.1943 31.7004 43.977 31.7597 43.7843 31.8782C43.5966 31.9919 43.4509 32.1549 43.3471 32.3673C43.2434 32.5748 43.1915 32.8119 43.1915 33.0787C43.1915 33.3504 43.2434 33.5949 43.3471 33.8123C43.4509 34.0247 43.5966 34.1902 43.7843 34.3087C43.977 34.4273 44.1943 34.4866 44.4364 34.4866Z" fill="white"/>
<path d="M38.3115 33.0935C38.3115 32.7082 38.3856 32.3698 38.5338 32.0783C38.6869 31.7868 38.8993 31.5621 39.171 31.404C39.4427 31.241 39.754 31.1595 40.1047 31.1595C40.4505 31.1595 40.7568 31.2311 41.0236 31.3743C41.2903 31.5176 41.5003 31.7251 41.6534 31.9968C41.8065 32.2685 41.8881 32.5871 41.8979 32.9527C41.8979 33.007 41.893 33.0935 41.8831 33.212H38.9487V33.2639C38.9586 33.6344 39.0722 33.9308 39.2896 34.1531C39.507 34.3754 39.791 34.4866 40.1418 34.4866C40.4135 34.4866 40.6432 34.4199 40.8309 34.2865C41.0236 34.1482 41.152 33.958 41.2162 33.7159H41.8312C41.7571 34.1012 41.5719 34.4174 41.2755 34.6644C40.9791 34.9065 40.616 35.0275 40.1862 35.0275C39.8108 35.0275 39.4823 34.9485 39.2007 34.7904C38.9191 34.6274 38.6993 34.4001 38.5412 34.1087C38.388 33.8123 38.3115 33.4739 38.3115 33.0935ZM41.2681 32.7082C41.2384 32.3871 41.1174 32.1376 40.905 31.9597C40.6975 31.7819 40.4332 31.693 40.1121 31.693C39.8256 31.693 39.5737 31.7868 39.3563 31.9746C39.1389 32.1623 39.0154 32.4068 38.9858 32.7082H41.2681Z" fill="white"/>
<path d="M36.1851 29.796C36.5259 29.796 36.8273 29.8627 37.0891 29.9961C37.3509 30.1245 37.5535 30.3098 37.6967 30.5518C37.84 30.789 37.9116 31.0681 37.9116 31.3892C37.9116 31.7498 37.8104 32.0635 37.6078 32.3302C37.4102 32.5921 37.1434 32.7699 36.8075 32.8638L37.9709 34.983H37.2447L36.1703 32.9897H34.8439V34.983H34.1992V29.796H36.1851ZM34.8439 32.3969H36.1332C36.4741 32.3969 36.7458 32.3055 36.9483 32.1228C37.1509 31.94 37.2521 31.6955 37.2521 31.3892C37.2521 31.0878 37.1509 30.8458 36.9483 30.663C36.7458 30.4802 36.4765 30.3888 36.1406 30.3888H34.8439V32.3969Z" fill="white"/>
<path d="M30.5699 34.6125C30.5699 34.489 30.6094 34.3902 30.6885 34.3161C30.7675 34.2371 30.8688 34.1976 30.9923 34.1976C31.1158 34.1976 31.2171 34.2371 31.2961 34.3161C31.3752 34.3902 31.4147 34.489 31.4147 34.6125C31.4147 34.736 31.3752 34.8373 31.2961 34.9164C31.2171 34.9905 31.1158 35.0275 30.9923 35.0275C30.8688 35.0275 30.7675 34.9905 30.6885 34.9164C30.6094 34.8373 30.5699 34.736 30.5699 34.6125Z" fill="white"/>
<path d="M28.3428 31.1595C28.8023 31.1595 29.1703 31.2978 29.4469 31.5744C29.7285 31.8511 29.8693 32.2858 29.8693 32.8786V34.983H29.2617V32.9156C29.2617 32.5254 29.1728 32.229 28.9949 32.0264C28.822 31.819 28.5701 31.7152 28.2391 31.7152C27.8834 31.7152 27.6043 31.8387 27.4018 32.0857C27.1992 32.3327 27.098 32.6686 27.098 33.0935V34.983H26.4903V31.2039H27.0164L27.098 31.7152C27.3845 31.3447 27.7994 31.1595 28.3428 31.1595Z" fill="white"/>
<path d="M25.6626 31.2039V34.7978C25.6626 35.9389 25.0377 36.5095 23.7879 36.5095C23.2988 36.5095 22.8987 36.3984 22.5874 36.1761C22.2812 35.9538 22.1033 35.6376 22.0539 35.2276H22.6764C22.7258 35.4647 22.8517 35.6475 23.0543 35.7759C23.2568 35.9044 23.5162 35.9686 23.8323 35.9686C24.6474 35.9686 25.055 35.5709 25.055 34.7756V34.331C24.7833 34.7953 24.351 35.0275 23.7582 35.0275C23.4075 35.0275 23.0938 34.9509 22.8171 34.7978C22.5454 34.6447 22.3305 34.4224 22.1725 34.1309C22.0193 33.8394 21.9428 33.4936 21.9428 33.0935C21.9428 32.7131 22.0193 32.3772 22.1725 32.0857C22.3305 31.7942 22.5479 31.567 22.8246 31.404C23.1012 31.241 23.4124 31.1595 23.7582 31.1595C24.0645 31.1595 24.3263 31.2212 24.5437 31.3447C24.7611 31.4633 24.9315 31.6337 25.055 31.856L25.1365 31.2039H25.6626ZM23.8175 34.4866C24.0596 34.4866 24.2745 34.4298 24.4622 34.3161C24.6548 34.1976 24.803 34.0346 24.9068 33.8271C25.0105 33.6147 25.0624 33.3751 25.0624 33.1083C25.0624 32.8366 25.0105 32.5945 24.9068 32.3821C24.803 32.1648 24.6548 31.9968 24.4622 31.8782C24.2745 31.7597 24.0596 31.7004 23.8175 31.7004C23.4421 31.7004 23.1382 31.8313 22.9061 32.0931C22.6788 32.35 22.5652 32.6835 22.5652 33.0935C22.5652 33.5035 22.6788 33.8394 22.9061 34.1012C23.1382 34.3581 23.4421 34.4866 23.8175 34.4866Z" fill="white"/>
<path d="M20.9399 29.7441C21.0535 29.7441 21.1474 29.7812 21.2215 29.8553C21.2956 29.9294 21.3326 30.0232 21.3326 30.1369C21.3326 30.2505 21.2956 30.3443 21.2215 30.4184C21.1474 30.4925 21.0535 30.5296 20.9399 30.5296C20.8263 30.5296 20.7324 30.4925 20.6583 30.4184C20.5842 30.3443 20.5472 30.2505 20.5472 30.1369C20.5472 30.0232 20.5842 29.9294 20.6583 29.8553C20.7324 29.7812 20.8263 29.7441 20.9399 29.7441ZM20.6361 31.2039H21.2437V34.983H20.6361V31.2039Z" fill="white"/>
<path d="M17.4125 33.7382C17.4224 33.9654 17.5212 34.1507 17.709 34.2939C17.9016 34.4372 18.1486 34.5088 18.45 34.5088C18.7167 34.5088 18.9316 34.4569 19.0946 34.3532C19.2626 34.2445 19.3466 34.1037 19.3466 33.9308C19.3466 33.7826 19.3071 33.669 19.228 33.59C19.149 33.5109 19.0452 33.4566 18.9168 33.4269C18.7933 33.3973 18.6155 33.3677 18.3833 33.338C18.0572 33.2985 17.7905 33.2466 17.583 33.1824C17.3755 33.1182 17.2075 33.0169 17.0791 32.8786C16.9507 32.7353 16.8864 32.5402 16.8864 32.2932C16.8864 32.0709 16.9482 31.8733 17.0717 31.7004C17.2001 31.5275 17.373 31.3941 17.5904 31.3002C17.8078 31.2014 18.0523 31.152 18.324 31.152C18.7686 31.152 19.1292 31.2558 19.4059 31.4633C19.6874 31.6708 19.843 31.9672 19.8727 32.3525H19.2651C19.2404 32.1549 19.144 31.9919 18.9761 31.8634C18.8081 31.735 18.5982 31.6708 18.3462 31.6708C18.0893 31.6708 17.8819 31.7251 17.7238 31.8338C17.5657 31.9375 17.4867 32.0758 17.4867 32.2487C17.4867 32.3772 17.5237 32.476 17.5978 32.5451C17.6719 32.6143 17.7658 32.6612 17.8794 32.6859C17.9979 32.7106 18.1758 32.7378 18.4129 32.7674C18.7439 32.807 19.0156 32.8613 19.228 32.9305C19.4454 32.9996 19.6183 33.1108 19.7467 33.2639C19.8801 33.4171 19.9468 33.6245 19.9468 33.8864C19.9468 34.1136 19.8801 34.3137 19.7467 34.4866C19.6133 34.6595 19.433 34.7929 19.2058 34.8867C18.9785 34.9806 18.7266 35.0275 18.45 35.0275C17.956 35.0275 17.5583 34.9139 17.2569 34.6866C16.9605 34.4594 16.8099 34.1432 16.8049 33.7382H17.4125Z" fill="white"/>
<path d="M12.673 33.0935C12.673 32.7082 12.7471 32.3698 12.8953 32.0783C13.0484 31.7868 13.2608 31.5621 13.5325 31.404C13.8042 31.241 14.1154 31.1595 14.4662 31.1595C14.812 31.1595 15.1183 31.2311 15.385 31.3743C15.6518 31.5176 15.8617 31.7251 16.0149 31.9968C16.168 32.2685 16.2495 32.5871 16.2594 32.9527C16.2594 33.007 16.2545 33.0935 16.2446 33.212H13.3102V33.2639C13.3201 33.6344 13.4337 33.9308 13.6511 34.1531C13.8684 34.3754 14.1525 34.4866 14.5032 34.4866C14.7749 34.4866 15.0046 34.4199 15.1924 34.2865C15.385 34.1482 15.5135 33.958 15.5777 33.7159H16.1927C16.1186 34.1012 15.9334 34.4174 15.637 34.6644C15.3406 34.9065 14.9775 35.0275 14.5477 35.0275C14.1723 35.0275 13.8437 34.9485 13.5622 34.7904C13.2806 34.6274 13.0607 34.4001 12.9027 34.1087C12.7495 33.8123 12.673 33.4739 12.673 33.0935ZM15.6296 32.7082C15.5999 32.3871 15.4789 32.1376 15.2665 31.9597C15.059 31.7819 14.7947 31.693 14.4736 31.693C14.1871 31.693 13.9351 31.7868 13.7178 31.9746C13.5004 32.1623 13.3769 32.4068 13.3473 32.7082H15.6296Z" fill="white"/>
<path d="M11.9786 29.796V34.983H11.4525L11.371 34.3754C11.0548 34.8101 10.6226 35.0275 10.0742 35.0275C9.72347 35.0275 9.40978 34.9509 9.13314 34.7978C8.86144 34.6447 8.64654 34.4224 8.48846 34.1309C8.33532 33.8394 8.25875 33.4936 8.25875 33.0935C8.25875 32.7131 8.33532 32.3772 8.48846 32.0857C8.64654 31.7943 8.86391 31.567 9.14055 31.404C9.41719 31.241 9.72841 31.1595 10.0742 31.1595C10.3805 31.1595 10.6423 31.2163 10.8597 31.3299C11.077 31.4386 11.2475 31.5892 11.371 31.7819V29.796H11.9786ZM10.1335 34.4866C10.3756 34.4866 10.5904 34.4298 10.7782 34.3161C10.9708 34.1976 11.119 34.0346 11.2228 33.8271C11.3265 33.6147 11.3784 33.3751 11.3784 33.1083C11.3784 32.8366 11.3265 32.5945 11.2228 32.3821C11.119 32.1648 10.9708 31.9968 10.7782 31.8782C10.5904 31.7597 10.3756 31.7004 10.1335 31.7004C9.75805 31.7004 9.45424 31.8313 9.22206 32.0931C8.99482 32.35 8.8812 32.6835 8.8812 33.0935C8.8812 33.5035 8.99482 33.8394 9.22206 34.1013C9.45424 34.3581 9.75805 34.4866 10.1335 34.4866Z" fill="white"/>
<path d="M4.1123 33.0935C4.1123 32.7082 4.1864 32.3698 4.3346 32.0783C4.48774 31.7868 4.70016 31.5621 4.97186 31.404C5.24357 31.241 5.55479 31.1595 5.90553 31.1595C6.25134 31.1595 6.55762 31.2311 6.82438 31.3743C7.09114 31.5176 7.30109 31.7251 7.45424 31.9968C7.60738 32.2685 7.68889 32.5871 7.69877 32.9527C7.69877 33.007 7.69383 33.0935 7.68395 33.212H4.74956V33.2639C4.75944 33.6344 4.87306 33.9308 5.09043 34.1531C5.30779 34.3754 5.59184 34.4866 5.94258 34.4866C6.21428 34.4866 6.444 34.4199 6.63172 34.2865C6.82438 34.1482 6.95282 33.958 7.01704 33.7159H7.63208C7.55798 34.1012 7.37272 34.4174 7.07632 34.6644C6.77992 34.9065 6.41683 35.0275 5.98704 35.0275C5.6116 35.0275 5.28309 34.9485 5.0015 34.7904C4.71992 34.6274 4.50009 34.4001 4.34201 34.1087C4.18887 33.8123 4.1123 33.4739 4.1123 33.0935ZM7.06891 32.7082C7.03927 32.3871 6.91824 32.1376 6.70582 31.9597C6.49834 31.7819 6.23405 31.693 5.91294 31.693C5.62642 31.693 5.37448 31.7868 5.15712 31.9746C4.93975 32.1623 4.81625 32.4068 4.78661 32.7082H7.06891Z" fill="white"/>
<path d="M1.9859 29.796C2.32676 29.796 2.6281 29.8627 2.88992 29.9961C3.15175 30.1245 3.35429 30.3098 3.49755 30.5518C3.64081 30.789 3.71244 31.0681 3.71244 31.3892C3.71244 31.7498 3.61117 32.0635 3.40863 32.3302C3.21103 32.5921 2.94426 32.7699 2.60834 32.8638L3.77172 34.983H3.04554L1.97108 32.9897H0.644675V34.983H0V29.796H1.9859ZM0.644675 32.3969H1.93403C2.27489 32.3969 2.54659 32.3055 2.74913 32.1228C2.95167 31.94 3.05295 31.6955 3.05295 31.3892C3.05295 31.0878 2.95167 30.8458 2.74913 30.663C2.54659 30.4802 2.27736 30.3888 1.94144 30.3888H0.644675V32.3969Z" fill="white"/>
</svg>
