<svg xmlns="http://www.w3.org/2000/svg" version="1.1" xmlns:xlink="http://www.w3.org/1999/xlink" width="1000" height="1000"><metadata><rdf:RDF xmlns:rdf="http://www.w3.org/1999/02/22-rdf-syntax-ns#" xmlns:dc="http://purl.org/dc/elements/1.1/"><rdf:Description><dc:creator>RealFaviconGenerator</dc:creator><dc:source>https://realfavicongenerator.net</dc:source></rdf:Description></rdf:RDF></metadata><g clip-path="url(#SvgjsClipPath1075)"><rect width="1000" height="1000" fill="#000000"></rect><g transform="matrix(20.833333333333332,0,0,20.833333333333332,0,0)"><svg xmlns="http://www.w3.org/2000/svg" width="48" height="48" viewBox="0 0 48 48" fill="none"><path d="M34.4932 19.636C34.4932 18.9184 34.7259 18.3365 35.1914 17.8905C35.6568 17.425 36.2484 17.1923 36.966 17.1923C37.6642 17.1923 38.246 17.425 38.7115 17.8905C39.1964 18.3559 39.4388 18.9378 39.4388 19.636C39.4388 20.3342 39.1964 20.916 38.7115 21.3815C38.246 21.8276 37.6642 22.0506 36.966 22.0506C36.2484 22.0506 35.6568 21.8276 35.1914 21.3815C34.7259 20.916 34.4932 20.3342 34.4932 19.636ZM34.4932 29.76C34.4932 29.0424 34.7259 28.4605 35.1914 28.0144C35.6568 27.549 36.2484 27.3162 36.966 27.3162C37.6642 27.3162 38.246 27.549 38.7115 28.0144C39.1964 28.4799 39.4388 29.0618 39.4388 29.76C39.4388 30.4582 39.1964 31.04 38.7115 31.5055C38.246 31.9516 37.6642 32.1746 36.966 32.1746C36.2484 32.1746 35.6568 31.9516 35.1914 31.5055C34.7259 31.04 34.4932 30.4582 34.4932 29.76Z" fill="white"></path><path d="M17.2988 24.5525C17.2988 23.0009 17.6091 21.653 18.2298 20.5087C18.8698 19.345 19.7522 18.4529 20.8771 17.8322C22.0214 17.1922 23.3402 16.8722 24.8336 16.8722C26.3464 16.8722 27.6749 17.1728 28.8192 17.774C29.9829 18.3559 30.8847 19.1898 31.5248 20.2759C32.1842 21.3426 32.5236 22.6033 32.543 24.0579C32.543 24.5815 32.5042 25.047 32.4266 25.4543H21.5753V25.5707C21.6723 26.6568 22.0214 27.5101 22.6226 28.1308C23.2239 28.7514 24.0481 29.0617 25.0955 29.0617C25.9294 29.0617 26.6179 28.8871 27.161 28.538C27.7234 28.1695 28.0919 27.6362 28.2665 26.938H32.3102C32.1551 27.9271 31.7769 28.8193 31.1757 29.6144C30.5744 30.4096 29.7793 31.0399 28.7901 31.5054C27.801 31.9515 26.6664 32.1745 25.3864 32.1745C23.7184 32.1745 22.2735 31.8642 21.0517 31.2436C19.8492 30.623 18.9183 29.7405 18.2589 28.5962C17.6188 27.4326 17.2988 26.0846 17.2988 24.5525ZM28.441 22.7779C28.3053 21.8663 27.9271 21.1681 27.3064 20.6832C26.7052 20.179 25.9391 19.9268 25.0082 19.9268C24.116 19.9268 23.3596 20.1887 22.739 20.7123C22.1378 21.2166 21.779 21.9051 21.6626 22.7779H28.441Z" fill="white"></path><path d="M16.5315 17.0468V20.7705H14.9024C13.7387 20.7705 12.8854 21.1196 12.3423 21.8178C11.7993 22.516 11.5277 23.4664 11.5277 24.6688V32H7.42578V17.0468H11.1495L11.5277 19.2868C11.9738 18.5498 12.5266 17.9971 13.186 17.6286C13.8454 17.2407 14.7278 17.0468 15.8333 17.0468H16.5315Z" fill="white"></path></svg></g></g><defs><clipPath id="SvgjsClipPath1075"><rect width="1000" height="1000" x="0" y="0" rx="350" ry="350"></rect></clipPath></defs></svg>